<?xml version="1.0" encoding="UTF-8"?><svg id="a" xmlns="http://www.w3.org/2000/svg" viewBox="0 0 17.483 17.483"><path d="m7.166,16.567c-.36-.459-.672-1.07-.932-1.784-.538-1.48-.875-3.47-.91-5.662H.769c.173,3.698,2.864,6.739,6.397,7.446Zm3.151,0c.36-.459.672-1.07.932-1.784.538-1.48.875-3.47.91-5.662h4.555c-.173,3.698-2.864,6.739-6.397,7.446Zm1.082-7.446h-5.315c.035,2.124.363,4.023.865,5.403.266.732.574,1.298.898,1.674.324.377.628.525.895.525s.571-.148.895-.525c.323-.376.631-.942.898-1.674.502-1.38.829-3.279.865-5.403Zm.76-.76c-.035-2.192-.372-4.183-.91-5.662-.259-.713-.571-1.325-.932-1.784,3.533.707,6.224,3.747,6.397,7.446h-4.555ZM8.741.76c-.267,0-.571.148-.895.525-.323.376-.631.942-.898,1.674-.502,1.38-.829,3.279-.865,5.402h5.315c-.035-2.123-.363-4.023-.865-5.402-.266-.732-.574-1.298-.898-1.674-.324-.377-.628-.525-.895-.525Zm0-.76C3.914,0,0,3.914,0,8.741s3.914,8.741,8.741,8.741,8.741-3.914,8.741-8.741S13.569,0,8.741,0ZM.769,8.361h4.555c.035-2.192.372-4.183.91-5.662.259-.713.571-1.325.932-1.784C3.633,1.623.942,4.663.769,8.361Z" fill="#b2ce80" fill-rule="evenodd" stroke-width="0"/></svg>