<?xml version="1.0" encoding="UTF-8"?><svg id="a" xmlns="http://www.w3.org/2000/svg" viewBox="0 0 18.001 17.999"><path id="b" d="m17.938,5.289c-.068-1.442-.397-2.719-1.454-3.772C15.432.465,14.155.135,12.713.063,11.227-.021,6.774-.021,5.288.063c-1.438.068-2.715.398-3.771,1.45S.136,3.843.063,5.284C-.021,6.77-.021,11.224.063,12.711c.068,1.442.398,2.719,1.454,3.771s2.329,1.382,3.771,1.454c1.486.084,5.939.084,7.425,0,1.442-.068,2.719-.398,3.771-1.454,1.052-1.052,1.381-2.33,1.454-3.771.084-1.486.084-5.936,0-7.423h0Zm-8.937,8.463c-2.619,0-4.75-2.131-4.75-4.75s2.131-4.75,4.75-4.75,4.75,2.131,4.75,4.75-2.131,4.75-4.75,4.75Zm5.52-9.25c-.552,0-1.005-.448-1.005-1s.443-1,.995-1h.01c.553,0,1,.448,1,1s-.447,1-1,1Zm-2.27,4.5c0,1.792-1.458,3.25-3.25,3.25s-3.25-1.458-3.25-3.25,1.458-3.25,3.25-3.25,3.25,1.458,3.25,3.25Z" fill="#529374" stroke-width="0"/></svg>