<?xml version="1.0" encoding="utf-8"?>
<!-- Generator: Adobe Illustrator 28.0.0, SVG Export Plug-In . SVG Version: 6.00 Build 0)  -->
<svg version="1.1" id="a" xmlns="http://www.w3.org/2000/svg" xmlns:xlink="http://www.w3.org/1999/xlink" x="0px" y="0px"
	 width="18px" height="18px" viewBox="0 0 18 18" style="enable-background:new 0 0 18 18;" xml:space="preserve">
<style type="text/css">
	.st0{fill:#006400;}
</style>
<path id="b" class="st0" d="M17.9,5.3c-0.1-1.4-0.4-2.7-1.5-3.8c-1.1-1.1-2.3-1.4-3.8-1.5C11.2,0,6.8,0,5.3,0.1
	C3.9,0.1,2.6,0.5,1.5,1.5S0.1,3.8,0.1,5.3C0,6.8,0,11.2,0.1,12.7c0.1,1.4,0.4,2.7,1.5,3.8s2.3,1.4,3.8,1.5c1.5,0.1,5.9,0.1,7.4,0
	c1.4-0.1,2.7-0.4,3.8-1.5c1.1-1.1,1.4-2.3,1.5-3.8C18,11.2,18,6.8,17.9,5.3L17.9,5.3L17.9,5.3z M9,13.8c-2.6,0-4.8-2.1-4.8-4.8
	S6.4,4.3,9,4.3s4.8,2.1,4.8,4.8S11.6,13.8,9,13.8z M14.5,4.5c-0.6,0-1-0.4-1-1s0.4-1,1-1h0c0.6,0,1,0.4,1,1S15.1,4.5,14.5,4.5z
	 M12.3,9c0,1.8-1.5,3.2-3.2,3.2S5.8,10.8,5.8,9S7.2,5.8,9,5.8S12.3,7.2,12.3,9z"/>
</svg>
