<?xml version="1.0" encoding="UTF-8"?><svg id="a" xmlns="http://www.w3.org/2000/svg" viewBox="0 0 174.76 189.71"><path d="m174.76,94.86c0,2.89-.13,5.74-.38,8.56-2.12,23.73-12.95,44.95-29.27,60.44-4.15,3.93-8.65,7.5-13.45,10.64-7.67,5.02-16.11,8.96-25.11,11.61-5.51,1.63-11.23,2.76-17.11,3.36v-51.01h17.11v28.76c4.21-1.57,8.24-3.5,12.07-5.76,4.96-2.93,9.57-6.4,13.74-10.34,12.98-12.25,21.69-28.97,23.67-47.7h-66.59V.24c5.88.6,11.6,1.74,17.11,3.37,23.48,6.91,43.17,22.63,55.27,43.33h-22.47c-8.54-10.56-19.84-18.8-32.8-23.65v63.01h67.83c.25,2.82.38,5.67.38,8.56Z" stroke-width="0"/><path d="m72.57,0v189.71c-5.84-.42-11.53-1.38-17.03-2.82v-88.5L13.43,56.28,0,42.84c3.14-4.8,6.7-9.3,10.64-13.45l13.14,13.14,31.76,31.77V2.82c5.5-1.44,11.19-2.39,17.03-2.82Z" stroke-width="0"/></svg>