<?xml version="1.0" encoding="UTF-8"?><svg id="a" xmlns="http://www.w3.org/2000/svg" viewBox="0 0 214.664 162.211"><path d="m214.641,95.469l-22.249.426c-36.048,28.766-74.871,27.635-105.821,17.275-5.42-1.82-10.84-3.38-16.12-4.67,12.29-39.21,25.05-92.32,28.11-105.33.01-.03.01-.05.02-.07.45-1.88.69-2.91.69-2.91h-10.96s-5.93,23.93-13.62,52.3c-4.81,17.72-10.3,37.18-15.47,53.62-9.6-1.73-24.12-2.88-32.91-1.91-.43.04-.86.09-1.29.16-.04.01-.09.01-.13.02-.43.06-.86.13-1.29.21h-.02c-13.45,2.59-23.58,14.38-23.58,28.56,0,8.09,3.31,15.42,8.65,20.7,3.78,3.73,8.58,6.44,13.95,7.65.26.06.52.11.78.17h.02c2.96.57,6.03.69,9.11.36.04-.01.08-.01.13-.02.17-.01.34-.03.51-.05.13-.02.25-.04.37-.06,7.49-1.06,15.427-4.507,20.24-11.93,3.146-4.851,8.14-15.75,12.86-29.69.04-.12.09-.25.13-.38.01,0,.03.01.04.01.94.24,1.9.49,2.87.75h.02c5.93,1.58,12.25,4.184,19.57,6,100.114,24.84,126.321-31.78,125.391-31.19ZM29.35,114.809c8.09-.46,16.56.53,23.65,1.81h.01c.8.15,1.58.29,2.34.45,0,0-8.032,22.818-11,26.26-3.28,4.93-8.89,8.17-15.26,8.17-4.44,0-8.51-1.57-11.68-4.19-.02-.01-.03-.03-.05-.04-4.04-3.37-6.62-8.44-6.62-14.12,0-8.77,6.15-16.11,14.38-17.92m0,0c1.09-.2,3.08-.42,4.23-.42" stroke-width="0"/><path d="m144.638,57.425c3.209,2.568,6.951,6.055,9.101,9.795.01.01-.01-.01,0,0,2.45,4.26,3.89,9.25,3.89,14.53,0,15.91-12.78,28.84-28.63,29.07h-.06c-.13.01-.26.01-.39.01-18.408,0-26.291-14.069-28.24-22.09-.002-.01-.01-.03-.01-.04s-.01-.02-.01-.03c-.27-1.1-.48-2.23-.61-3.38-.15-1.16-.22-2.34-.22-3.54s.07-2.38.22-3.54h10.85c-.22,1.15-.34,2.33-.34,3.54s.12,2.4.34,3.54c1.66,8.44,9.09,14.81,18.02,14.81,10.13,0,18.35-8.22,18.35-18.35,0-6.99-9.67-16.17-9.67-16.17l-14.22-12.39c-7.732-5.807-12.82-14.07-12.82-24.11,0-1.89.18-3.74.53-5.53,2.41-12.55,12.9-22.23,25.85-23.42C137.458.04,138.368,0,139.278,0,154.138,0,166.408,11.15,168.148,25.54c.15,1.16.22,2.34.22,3.54s-.07,2.39-.23,3.55c-.11,1-.28,1.98-.51,2.94h-11.14s.61-1.98.8-2.94c.22-1.15.34-2.34.34-3.55s-.12-2.39-.34-3.54c-1.65-8.44-9.09-14.81-18.01-14.81-10.14,0-18.35,8.22-18.35,18.35,0,6.39,3.592,11.92,8.2,15.29l15.509,13.055Z" stroke-width="0"/><path d="m75.279,56.788c-40.66,17.17-40.866-.388-40.866-.388-.268-1.679-.143-3.398.249-5.052L46.123,2.98c.01-.03.71-2.98.71-2.98h-10.96s-4.59,22.558-11.953,49.837c-.935,3.465-1.108,7.122-.28,10.614,1.36,5.737,4.577,12.751,16.756,14.846,7.628,1.312,15.465.101,22.536-3.045,5.1-2.269,11.669-5.811,18.657-11.181l-6.31-4.282Z" stroke-width="0"/></svg>