<?xml version="1.0" encoding="UTF-8"?><svg id="a" xmlns="http://www.w3.org/2000/svg" viewBox="0 0 145 19.878"><path id="b" d="m145,10c0,4.991-3.657,9.128-8.438,9.878v-6.878h2.438l.453-3h-2.891v-1.876c0-.791.387-1.562,1.63-1.562h1.261v-2.367s-1.144-.195-2.238-.195c-2.284,0-3.777,1.291-3.777,3.797v2.203h-2.419v3h2.419v6.878c-4.781-.75-8.438-4.887-8.438-9.878,0-5.523,4.477-10,10-10s10,4.477,10,10" fill="#529374" stroke-width="0"/><path id="c" d="m59.937,6.229c-.068-1.442-.397-2.719-1.454-3.772-1.052-1.052-2.329-1.382-3.771-1.454-1.486-.084-5.939-.084-7.425,0-1.438.068-2.715.398-3.771,1.45-1.056,1.052-1.381,2.33-1.454,3.771-.084,1.486-.084,5.94,0,7.427.068,1.442.398,2.719,1.454,3.771,1.056,1.052,2.329,1.382,3.771,1.454,1.486.084,5.939.084,7.425,0,1.442-.068,2.719-.398,3.771-1.454,1.052-1.052,1.381-2.33,1.454-3.771.084-1.486.084-5.936,0-7.423Zm-8.937,8.463c-2.619,0-4.75-2.131-4.75-4.75s2.131-4.75,4.75-4.75,4.75,2.131,4.75,4.75-2.131,4.75-4.75,4.75Zm5.52-9.25c-.552,0-1.005-.448-1.005-1s.443-1,.995-1h.01c.553,0,1,.448,1,1s-.447,1-1,1Zm-2.27,4.5c0,1.792-1.458,3.25-3.25,3.25s-3.25-1.458-3.25-3.25,1.458-3.25,3.25-3.25,3.25,1.458,3.25,3.25Z" fill="#529374" stroke-width="0"/><path id="d" d="m93,.94c-4.97,0-9,4.03-9,9,0,1.67.46,3.24,1.26,4.59l-1.26,4.41,4.41-1.26c1.35.8,2.92,1.26,4.59,1.26,4.97,0,9-4.03,9-9S97.97.94,93,.94Zm4.825,12.442c-.211.585-1.212,1.129-1.662,1.179-.451.051-.872.212-2.955-.614-2.504-.998-4.086-3.577-4.206-3.739-.12-.161-1.002-1.34-1.002-2.559s.631-1.815.861-2.066c.23-.252.5-.312.661-.312.17,0,.33,0,.481.01.17,0,.371.01.551.423.22.494.691,1.713.751,1.824.06.121.1.272.02.433-.091.161-.13.272-.25.413-.12.141-.261.323-.371.433-.13.121-.25.252-.11.504.151.242.641,1.058,1.372,1.713.942.847,1.733,1.109,1.983,1.229.24.121.39.101.53-.06.15-.161.621-.715.781-.967.16-.242.32-.202.55-.121.231.081,1.432.685,1.683.806.24.131.411.191.471.292.06.101.06.605-.14,1.179Z" fill="#529374" stroke-width="0"/><path d="m18,12.236c0-2.571-2.428-4.655-5.422-4.655s-5.422,2.085-5.422,4.655,2.428,4.656,5.422,4.656c.619,0,1.216-.091,1.77-.255l.159-.025c.104,0,.199.033.288.086l1.187.707.104.035c.1,0,.181-.083.181-.186l-.029-.136-.244-.939-.019-.119c0-.125.06-.236.151-.303,1.143-.854,1.873-2.116,1.873-3.52Zm-7.229-.557c-.399,0-.722-.323-.722-.722s.323-.722.722-.722.723.323.723.722-.323.722-.723.722Zm3.615,0c-.4,0-.723-.323-.723-.722s.323-.722.723-.722.722.323.722.722-.323.722-.722.722ZM6.506,2.44C2.913,2.44,0,4.941,0,8.028c0,1.684.876,3.199,2.248,4.224.11.08.182.213.182.364l-.022.142-.293,1.127-.035.163c0,.124.097.224.217.224l.126-.042,1.424-.848c.107-.063.22-.103.345-.103l.191.029c.665.197,1.381.307,2.124.307l.357-.009c-.141-.436-.218-.895-.218-1.369,0-2.814,2.656-5.096,5.933-5.096l.353.009c-.49-2.669-3.18-4.71-6.425-4.71Zm-2.169,5.018c-.479,0-.867-.388-.867-.865s.388-.866.867-.866.868.388.868.866-.389.865-.868.865Zm4.337,0c-.479,0-.867-.388-.867-.865s.388-.866.867-.866.868.388.868.866-.388.865-.868.865Z" fill="#529374" fill-rule="evenodd" stroke-width="0"/></svg>