<?xml version="1.0" encoding="utf-8"?>
<!-- Generator: Adobe Illustrator 28.0.0, SVG Export Plug-In . SVG Version: 6.00 Build 0)  -->
<svg version="1.1" id="a" xmlns="http://www.w3.org/2000/svg" xmlns:xlink="http://www.w3.org/1999/xlink" x="0px" y="0px"
	 width="135.2px" height="113.6px" viewBox="0 0 135.2 113.6" style="enable-background:new 0 0 135.2 113.6;" xml:space="preserve"
	>
<style type="text/css">
	.st0{fill:#6F9F63;}
	.st1{fill:#529374;}
</style>
<path class="st0" d="M36.3,0C16.3,0,0,16.3,0,36.3s16.3,36.3,36.3,36.3s36.3-16.3,36.3-36.3S56.4,0,36.3,0z M47.2,47.3l-8-3.8
	l-3,14.5l-2.9-14.5l-8,3.8l3.8-8l-8.3-3l8.3-2.9l-3.8-8l8,3.8l3-14.5l2.9,14.5l8-3.8l-3.8,8l8.3,3l-8.3,2.9L47.2,47.3z"/>
<path class="st1" d="M121.4,33C103,14.6,73.1,14.6,54.7,33s-18.4,48.3,0,66.7s48.3,18.4,66.7,0C139.8,81.3,139.8,51.5,121.4,33
	L121.4,33z M88,86.4l-3.8-10.8l-16,10.6l10.6-16L68,66.4l10.8-3.8l-4.9-10.3l10.3,4.9l3.8-10.8l3.8,10.8l16-10.6l-10.6,16l10.8,3.8
	l-10.8,3.8l4.9,10.3l-10.3-4.9L88,86.4L88,86.4z"/>
</svg>
