<?xml version="1.0" encoding="UTF-8"?><svg id="a" xmlns="http://www.w3.org/2000/svg" viewBox="0 0 18 15"><path d="m18,9.796c0-2.571-2.428-4.655-5.422-4.655s-5.422,2.085-5.422,4.655,2.428,4.656,5.422,4.656c.619,0,1.216-.091,1.77-.255l.159-.025c.104,0,.199.033.288.086l1.187.707.104.035c.1,0,.181-.083.181-.186l-.029-.136-.244-.939-.019-.119c0-.125.06-.236.151-.303,1.143-.854,1.873-2.116,1.873-3.52h.001Zm-7.229-.557c-.399,0-.722-.323-.722-.722s.323-.722.722-.722.723.323.723.722-.323.722-.723.722Zm3.615,0c-.4,0-.723-.323-.723-.722s.323-.722.723-.722.722.323.722.722-.323.722-.722.722ZM6.506,0C2.913,0,0,2.501,0,5.588c0,1.684.876,3.199,2.248,4.224.11.08.182.213.182.364l-.022.142-.293,1.127-.035.163c0,.124.097.224.217.224l.126-.042,1.424-.848c.107-.063.22-.103.345-.103l.191.029c.665.197,1.381.307,2.124.307l.357-.009c-.141-.436-.218-.895-.218-1.369,0-2.814,2.656-5.096,5.933-5.096l.353.009C12.442,2.041,9.752,0,6.507,0h0Zm-2.169,5.018c-.479,0-.867-.388-.867-.865s.388-.866.867-.866.868.388.868.866-.389.865-.868.865Zm4.337,0c-.479,0-.867-.388-.867-.865s.388-.866.867-.866.868.388.868.866-.388.865-.868.865Z" fill="#529374" fill-rule="evenodd" stroke-width="0"/></svg>