<?xml version="1.0" encoding="utf-8"?>
<!-- Generator: Adobe Illustrator 28.0.0, SVG Export Plug-In . SVG Version: 6.00 Build 0)  -->
<svg version="1.1" id="a" xmlns="http://www.w3.org/2000/svg" xmlns:xlink="http://www.w3.org/1999/xlink" x="0px" y="0px"
	 width="18px" height="15px" viewBox="0 0 18 15" style="enable-background:new 0 0 18 15;" xml:space="preserve">
<style type="text/css">
	.st0{fill-rule:evenodd;clip-rule:evenodd;fill:#006400;}
</style>
<path class="st0" d="M18,9.8c0-2.6-2.4-4.7-5.4-4.7S7.2,7.2,7.2,9.8s2.4,4.7,5.4,4.7c0.6,0,1.2-0.1,1.8-0.3l0.2,0
	c0.1,0,0.2,0,0.3,0.1L16,15l0.1,0c0.1,0,0.2-0.1,0.2-0.2l0-0.1L16,13.7l0-0.1c0-0.1,0.1-0.2,0.2-0.3C17.3,12.5,18,11.2,18,9.8
	L18,9.8L18,9.8z M10.8,9.2c-0.4,0-0.7-0.3-0.7-0.7s0.3-0.7,0.7-0.7s0.7,0.3,0.7,0.7S11.2,9.2,10.8,9.2z M14.4,9.2
	c-0.4,0-0.7-0.3-0.7-0.7s0.3-0.7,0.7-0.7s0.7,0.3,0.7,0.7S14.8,9.2,14.4,9.2z M6.5,0C2.9,0,0,2.5,0,5.6c0,1.7,0.9,3.2,2.2,4.2
	c0.1,0.1,0.2,0.2,0.2,0.4l0,0.1l-0.3,1.1l0,0.2c0,0.1,0.1,0.2,0.2,0.2l0.1,0l1.4-0.8c0.1-0.1,0.2-0.1,0.3-0.1l0.2,0
	c0.7,0.2,1.4,0.3,2.1,0.3l0.4,0c-0.1-0.4-0.2-0.9-0.2-1.4c0-2.8,2.7-5.1,5.9-5.1l0.4,0C12.4,2,9.8,0,6.5,0L6.5,0L6.5,0z M4.3,5
	C3.9,5,3.5,4.6,3.5,4.2s0.4-0.9,0.9-0.9s0.9,0.4,0.9,0.9S4.8,5,4.3,5z M8.7,5C8.2,5,7.8,4.6,7.8,4.2s0.4-0.9,0.9-0.9
	s0.9,0.4,0.9,0.9S9.2,5,8.7,5z"/>
</svg>
