<?xml version="1.0" encoding="utf-8"?>
<!-- Generator: Adobe Illustrator 28.0.0, SVG Export Plug-In . SVG Version: 6.00 Build 0)  -->
<svg version="1.1" id="a" xmlns="http://www.w3.org/2000/svg" xmlns:xlink="http://www.w3.org/1999/xlink" x="0px" y="0px"
	 width="18px" height="18px" viewBox="0 0 18 18" style="enable-background:new 0 0 18 18;" xml:space="preserve">
<style type="text/css">
	.st0{fill:#006400;}
</style>
<path id="b" class="st0" d="M9,0C4,0,0,4,0,9c0,1.7,0.5,3.2,1.3,4.6L0,18l4.4-1.3C5.8,17.5,7.3,18,9,18c5,0,9-4,9-9S14,0,9,0z
	 M13.8,12.4c-0.2,0.6-1.2,1.1-1.7,1.2c-0.5,0.1-0.9,0.2-3-0.6C6.7,12,5.1,9.4,5,9.3C4.9,9.1,4,7.9,4,6.7s0.6-1.8,0.9-2.1
	c0.2-0.3,0.5-0.3,0.7-0.3c0.2,0,0.3,0,0.5,0c0.2,0,0.4,0,0.6,0.4c0.2,0.5,0.7,1.7,0.8,1.8c0.1,0.1,0.1,0.3,0,0.4
	C7.2,7.2,7.2,7.3,7.1,7.4S6.8,7.8,6.7,7.9C6.6,8,6.5,8.1,6.6,8.4C6.7,8.6,7.2,9.4,8,10.1c0.9,0.8,1.7,1.1,2,1.2
	c0.2,0.1,0.4,0.1,0.5-0.1c0.1-0.2,0.6-0.7,0.8-1c0.2-0.2,0.3-0.2,0.6-0.1c0.2,0.1,1.4,0.7,1.7,0.8c0.2,0.1,0.4,0.2,0.5,0.3
	S14,11.9,13.8,12.4L13.8,12.4L13.8,12.4z"/>
</svg>
