<?xml version="1.0" encoding="UTF-8"?><svg id="a" xmlns="http://www.w3.org/2000/svg" viewBox="0 0 18 18"><path id="b" d="m9,0C4.03,0,0,4.03,0,9c0,1.67.46,3.24,1.26,4.59l-1.26,4.41,4.41-1.26c1.35.8,2.92,1.26,4.59,1.26,4.97,0,9-4.03,9-9S13.97,0,9,0Zm4.825,12.442c-.211.585-1.212,1.129-1.662,1.179-.451.051-.872.212-2.955-.614-2.504-.998-4.086-3.577-4.206-3.739-.12-.161-1.002-1.34-1.002-2.559s.631-1.815.861-2.066c.23-.252.5-.312.661-.312.17,0,.33,0,.481.01.17,0,.371.01.551.423.22.494.691,1.713.751,1.824.06.121.1.272.02.433-.091.161-.13.272-.25.413s-.261.323-.371.433c-.13.121-.25.252-.11.504.151.242.641,1.058,1.372,1.713.942.847,1.733,1.109,1.983,1.229.24.121.39.101.53-.06.15-.161.621-.715.781-.967.16-.242.32-.202.55-.121.231.081,1.432.685,1.683.806.24.131.411.191.471.292s.06.605-.14,1.179h0Z" fill="#529374" stroke-width="0"/></svg>